<?xml version="1.0" encoding="utf-8"?>
<!-- Svg Vector Icons : http://www.onlinewebfonts.com/icon -->
<!DOCTYPE svg PUBLIC "-//W3C//DTD SVG 1.1//EN" "http://www.w3.org/Graphics/SVG/1.1/DTD/svg11.dtd">
<svg version="1.1" xmlns="http://www.w3.org/2000/svg" xmlns:xlink="http://www.w3.org/1999/xlink" x="0px" y="0px" viewBox="0 0 256 256" enable-background="new 0 0 256 256" xml:space="preserve">
<metadata> Svg Vector Icons : http://www.onlinewebfonts.com/icon </metadata>
<g><g><path fill="#000000" d="M103.3,155.2c0-0.3,0-0.6-0.1-0.9H98l2.5-3.8c-0.7-0.4-1.6-0.6-2.5-0.6c-2.9,0-5.2,2.4-5.2,5.3s2.4,5.3,5.2,5.3C100.9,160.5,103.3,158.1,103.3,155.2z"/><path fill="#000000" d="M232.7,134.9c0,0-19.3,13.3-34.4,2.4c1.4-2.8,2.8-5.8,4-8.9c10.8,0.6,21.8-2.6,27.1-12.9l1.3-2.6l-2.6-1.5c-6.2-3.6-14.5-4.1-21.6-2c-0.9-7.5-5.8-14.1-11.7-18.9l-2.3-1.9l-2,2.3c-3.9,4.6-5.1,12.1-4.6,17.9c0.4,4.3,1.8,8.6,4.4,12c-2,1.2-4.3,2.2-6.3,2.8c-4.1,1.4-8.6,2.2-13,2.2h-9.1v-19.3h-19.5V87.9v-0.5v-19h-20v19h-19h-0.5H83.8v19.3H64.6V126H48.9l-0.3,2.8c-0.3,3.7-0.4,7.4,0,11.1c-7.9,2.3-18.6,3-27.2-5c0,0-4.7,7.9-11.5,9.1h39.2c0.7,4.2,2,8.2,3.7,12.1l1.7,3.4l0.2,0.3c11.5,19.5,31.7,27.7,53.7,27.7c36.7,0,67.8-14.1,86-43.6H246C246,144.1,233,142.8,232.7,134.9z M157.7,110h1.5v13.4h-1.5V110z M154.5,110h1.5v13.4h-1.5V110z M151.2,110h1.5v13.4h-1.5V110z M147.9,110h1.5v13.4h-1.5V110z M145,110h1.5v13.4H145V110z M138.3,71.4h1.5v13.4h-1.5V71.4z M138.3,90.4h1.5v13.4h-1.5V90.4z M138.3,110h1.5v13.4h-1.5V110z M135,71.4h1.5v13.4H135V71.4z M135,90.4h1.5v13.4H135V90.4z M135,110h1.5v13.4H135V110z M131.7,71.4h1.5v13.4h-1.5V71.4z M131.7,90.4h1.5v13.4h-1.5V90.4z M131.7,110h1.5v13.4h-1.5V110z M128.5,71.4h1.5v13.4h-1.5V71.4z M128.5,90.4h1.5v13.4h-1.5V90.4z M128.5,110h1.5v13.4h-1.5V110z M125.5,71.4h1.5v13.4h-1.5V71.4z M125.5,90.4h1.5v13.4h-1.5V90.4z M125.5,110h1.5v13.4h-1.5V110z M118.8,90.4h1.5v13.4h-1.5V90.4z M118.8,110h1.5v13.4h-1.5V110z M115.5,90.4h1.5v13.4h-1.5V90.4z M115.5,110h1.5v13.4h-1.5V110z M112.3,90.4h1.5v13.4h-1.5V90.4z M112.3,110h1.5v13.4h-1.5V110z M109,90.4h1.5v13.4H109V90.4z M109,110h1.5v13.4H109V110z M106.1,90.4h1.5v13.4h-1.5V90.4z M106.1,110h1.5v13.4h-1.5V110z M99.3,90.4h1.5v13.4h-1.5V90.4z M99.3,110h1.5v13.4h-1.5V110z M96.1,90.4h1.5v13.4h-1.5V90.4z M96.1,110h1.5v13.4h-1.5V110z M92.8,90.4h1.5v13.4h-1.5V90.4z M92.8,110h1.5v13.4h-1.5V110z M89.5,90.4H91v13.4h-1.5V90.4z M89.5,110H91v13.4h-1.5V110z M86.6,90.4h1.5v13.4h-1.5V90.4z M86.6,110h1.5v13.4h-1.5V110z M80,110h1.5v13.4H80V110z M76.7,110h1.5v13.4h-1.5V110z M73.4,110h1.5v13.4h-1.5V110z M70.2,110h1.5v13.4h-1.5V110z M67.2,110h1.5v13.4h-1.5V110z M59,164.4l0.8-0.1c-0.7-0.1-1.1-0.1-1.2-0.1c-0.6-0.1-1-0.5-0.9-0.9c0.1-0.4,0.7-0.7,1.3-0.7c0.2,0,15.5,2.1,24-1.6l0,0l0,0c0.3-0.1,0.6-0.3,0.9-0.4c0.5-0.3,1.2-0.2,1.5,0.2c0.3,0.4,0.2,0.9-0.3,1.1c-0.5,0.2-1,0.5-1.5,0.7l0.3,0.8c0,0,6.5,12,28.3,22.7C112.3,186,79,189.9,59,164.4z M90.6,155.2c0-4.1,3.3-7.4,7.4-7.4c4.1,0,7.4,3.3,7.4,7.4c0,4.1-3.3,7.4-7.4,7.4C93.9,162.6,90.6,159.3,90.6,155.2z M198.3,137.3c-1.4,2.7-3,5.4-3.8,6.7H49.4c-0.2-1.4-0.4-2.8-0.5-4.2c0,0,0,0-0.1,0c6.5-1.9,11.2-4.9,11.2-4.9c17.4,14.7,46.4,0,46.4,0c21.8,14.7,41.8,0,41.8,0c29.5,15.8,47.2,0,47.2,0C196.4,135.8,197.4,136.6,198.3,137.3L198.3,137.3z"/></g></g>
</svg>