<svg width="355" height="400" viewBox="0 0 355 400" fill="none" xmlns="http://www.w3.org/2000/svg">
<g clip-path="url(#clip0_303_17457)">
<path fill-rule="evenodd" clip-rule="evenodd" d="M222.868 283.464C158.708 283.464 145.257 254.167 145.257 229.329C145.257 228.207 145.703 227.131 146.497 226.337C147.291 225.544 148.368 225.098 149.491 225.098H168.446C169.453 225.101 170.427 225.464 171.191 226.12C171.955 226.776 172.46 227.683 172.615 228.678C175.481 247.982 183.981 257.715 222.803 257.715C253.711 257.715 266.836 250.651 266.836 234.375C266.836 224.935 263.091 218.099 215.084 213.249C174.927 209.277 149.947 200.456 149.947 168.327C149.947 138.77 174.895 121.159 216.713 121.159C263.677 121.159 286.931 137.435 289.862 172.461C289.91 173.053 289.833 173.648 289.636 174.209C289.44 174.77 289.129 175.283 288.723 175.716C288.304 176.157 287.798 176.506 287.237 176.741C286.677 176.976 286.074 177.093 285.466 177.083H266.739C265.787 177.086 264.862 176.765 264.117 176.173C263.371 175.582 262.849 174.755 262.635 173.828C258.043 153.548 246.969 147.038 216.811 147.038C183.069 146.973 179.128 158.724 179.128 167.513C179.128 178.19 183.753 181.315 229.284 187.337C274.816 193.359 295.79 201.823 295.79 233.431C295.79 265.039 269.149 283.659 222.673 283.659L222.868 283.464ZM177.565 400C172.17 400.003 166.869 398.589 162.193 395.899L113.34 366.927C106.012 362.826 109.594 361.393 112.004 360.417C119.774 357.977 127.212 354.587 134.151 350.326C134.731 350.054 135.37 349.935 136.009 349.981C136.647 350.026 137.264 350.235 137.799 350.586L175.416 372.884C176.119 373.252 176.901 373.444 177.695 373.444C178.49 373.444 179.272 373.252 179.975 372.884L326.535 288.249C327.221 287.838 327.789 287.256 328.183 286.56C328.577 285.863 328.783 285.077 328.782 284.277V115.332C328.785 114.52 328.576 113.72 328.176 113.013C327.777 112.305 327.2 111.713 326.502 111.296L179.943 26.6602C179.256 26.2599 178.475 26.049 177.679 26.049C176.884 26.049 176.103 26.2599 175.416 26.6602L28.856 111.296C28.1528 111.701 27.569 112.285 27.163 112.988C26.7571 113.691 26.5435 114.488 26.5436 115.3V284.57C26.5417 285.37 26.7516 286.155 27.1521 286.847C27.5526 287.539 28.1292 288.112 28.8234 288.509L68.9808 311.686C90.7042 322.461 104.22 309.603 104.22 296.712V129.753C104.216 129.193 104.323 128.638 104.537 128.121C104.75 127.603 105.065 127.133 105.462 126.739C105.86 126.345 106.332 126.034 106.851 125.825C107.371 125.616 107.927 125.512 108.487 125.521H127.018C127.576 125.517 128.128 125.623 128.644 125.834C129.159 126.045 129.628 126.357 130.022 126.751C130.416 127.145 130.728 127.613 130.939 128.128C131.15 128.644 131.257 129.196 131.252 129.753V296.777C131.252 325.846 115.391 342.35 87.8381 342.35C79.3702 342.35 72.6611 342.35 54.0317 333.171L15.3725 311.165C10.6976 308.441 6.81842 304.54 4.12129 299.851C1.42416 295.162 0.00323634 289.849 5.2129e-05 284.44L5.21289e-05 115.169C-0.00990057 109.758 1.40547 104.44 4.10391 99.7482C6.80234 95.057 10.6888 91.1583 15.3725 88.4441L162.16 3.80868C166.891 1.23023 172.193 -0.12085 177.581 -0.12085C182.97 -0.12085 188.272 1.23023 193.003 3.80868L339.562 88.4441C344.278 91.1689 348.189 95.0908 350.9 99.8125C353.611 104.534 355.025 109.888 355 115.332V284.603C354.987 290.01 353.562 295.319 350.866 300.007C348.17 304.694 344.296 308.597 339.628 311.328L193.068 395.964C188.37 398.658 183.047 400.072 177.63 400.065L177.565 400Z" fill="#E6E6E6"/>
</g>
<defs>
<clipPath id="clip0_303_17457">
<rect width="355" height="400" fill="white"/>
</clipPath>
</defs>
</svg>
